<?xml version="1.0" encoding="UTF-8"?>
<svg id="Layer_1" data-name="Layer 1" xmlns="http://www.w3.org/2000/svg" viewBox="0 0 516.55 136.88">
  <defs>
    <style>
      .cls-1 {
        fill: #fff;
      }

      .cls-2 {
        fill: #5c5b5f;
      }
    </style>
  </defs>
  <g id="Completo_Preto">
    <g>
      <path d="M184.3,96.18c-3.76,0-7.12-.83-10.1-2.48-2.97-1.65-5.33-4.06-7.09-7.24-1.75-3.17-2.63-7.07-2.63-11.7v-12.65c0-6.91,1.93-12.2,5.79-15.89,3.86-3.68,9.04-5.52,15.54-5.52s11.51,1.74,15.01,5.22c3.51,3.48,5.26,8.17,5.26,14.06v.3h-8.99v-.61c0-2.03-.41-3.86-1.22-5.49-.81-1.63-2.06-2.91-3.73-3.85-1.68-.94-3.79-1.41-6.32-1.41-3.76,0-6.72,1.16-8.88,3.47-2.16,2.31-3.24,5.5-3.24,9.56v12.95c0,4.01,1.08,7.21,3.24,9.6,2.16,2.39,5.17,3.58,9.03,3.58s6.68-1.04,8.46-3.12c1.78-2.08,2.67-4.75,2.67-8v-.91h-13.49v-7.77h22.48v26.82h-8.38v-5.26h-1.3c-.41.91-1.04,1.87-1.91,2.86-.86.99-2.1,1.82-3.7,2.48-1.6.66-3.77.99-6.52.99Z"/>
      <path d="M224.89,95.72c-2.9,0-5.46-.65-7.7-1.94-2.24-1.3-3.96-3.12-5.18-5.49-1.22-2.36-1.83-5.12-1.83-8.27v-22.56h8.69v21.87c0,3.05.75,5.31,2.25,6.78,1.5,1.47,3.62,2.21,6.36,2.21,3.1,0,5.55-1.02,7.35-3.05,1.8-2.03,2.71-4.95,2.71-8.76v-19.05h8.69v37.64h-8.53v-5.26h-1.3c-.66,1.37-1.87,2.69-3.62,3.96-1.75,1.27-4.38,1.91-7.89,1.91Z"/>
      <path d="M264.41,96.18c-2.64,0-5.03-.47-7.16-1.41-2.13-.94-3.82-2.3-5.07-4.08-1.25-1.78-1.87-3.96-1.87-6.55s.62-4.67,1.87-6.4c1.24-1.73,2.96-3.03,5.14-3.92,2.18-.89,4.67-1.33,7.47-1.33h10.9v-2.29c0-1.98-.61-3.59-1.83-4.84-1.22-1.24-3.12-1.87-5.72-1.87s-4.46.6-5.75,1.79c-1.3,1.19-2.15,2.73-2.55,4.61l-8.08-2.67c.61-1.98,1.59-3.78,2.93-5.41,1.35-1.63,3.14-2.93,5.37-3.92,2.23-.99,4.98-1.49,8.23-1.49,4.93,0,8.8,1.23,11.62,3.7,2.82,2.46,4.23,6.03,4.23,10.71v14.78c0,1.52.71,2.29,2.13,2.29h3.2v7.24h-6.17c-1.83,0-3.33-.46-4.5-1.37-1.17-.91-1.75-2.16-1.75-3.73v-.15h-1.3c-.3.71-.84,1.58-1.6,2.59-.76,1.02-1.92,1.89-3.47,2.63-1.55.74-3.65,1.11-6.29,1.11ZM265.86,89.02c2.9,0,5.26-.83,7.09-2.48,1.83-1.65,2.74-3.87,2.74-6.67v-.76h-10.36c-1.88,0-3.4.41-4.57,1.22-1.17.81-1.75,2.01-1.75,3.58s.61,2.76,1.83,3.7c1.22.94,2.9,1.41,5.03,1.41Z"/>
      <path d="M293.58,95.11v-37.64h8.61v4.34h1.3c.56-1.57,1.5-2.72,2.82-3.43,1.32-.71,2.9-1.07,4.72-1.07h4.57v7.77h-4.72c-2.54,0-4.6.67-6.17,2.02-1.58,1.35-2.36,3.42-2.36,6.21v21.79h-8.76Z"/>
      <path d="M332.57,96.18c-3.05,0-5.89-.75-8.53-2.25-2.64-1.5-4.75-3.7-6.32-6.59-1.58-2.9-2.36-6.37-2.36-10.44v-1.22c0-4.06.79-7.54,2.36-10.44,1.57-2.9,3.67-5.09,6.29-6.59,2.62-1.5,5.47-2.25,8.57-2.25,2.34,0,4.32.28,5.94.84,1.63.56,2.93,1.27,3.92,2.13.99.86,1.76,1.8,2.32,2.82h1.3v-20.42h8.69v53.34h-8.53v-4.95h-1.3c-.91,1.52-2.31,2.91-4.19,4.15-1.88,1.24-4.6,1.87-8.15,1.87ZM335.16,88.56c3.15,0,5.76-1.03,7.85-3.09,2.08-2.06,3.12-4.99,3.12-8.8v-.76c0-3.86-1.03-6.81-3.09-8.84-2.06-2.03-4.69-3.05-7.89-3.05s-5.78,1.02-7.89,3.05c-2.11,2.03-3.16,4.98-3.16,8.84v.76c0,3.81,1.05,6.74,3.16,8.8,2.11,2.06,4.74,3.09,7.89,3.09Z"/>
      <path d="M364.63,52.67c-1.58,0-2.93-.52-4.08-1.56-1.14-1.04-1.71-2.42-1.71-4.15s.57-3.11,1.71-4.15c1.14-1.04,2.5-1.56,4.08-1.56,1.68,0,3.06.52,4.15,1.56,1.09,1.04,1.64,2.43,1.64,4.15s-.55,3.11-1.64,4.15c-1.09,1.04-2.48,1.56-4.15,1.56ZM360.28,95.11v-37.64h8.76v37.64h-8.76Z"/>
      <path d="M394.17,96.18c-3.76,0-7.12-.78-10.1-2.32-2.97-1.55-5.31-3.76-7.01-6.63-1.7-2.87-2.55-6.31-2.55-10.33v-1.22c0-4.01.85-7.47,2.55-10.36,1.7-2.9,4.04-5.11,7.01-6.63,2.97-1.52,6.34-2.29,10.1-2.29s7.11.76,10.06,2.29c2.95,1.52,5.27,3.73,6.97,6.63,1.7,2.9,2.55,6.35,2.55,10.36v1.22c0,4.01-.85,7.46-2.55,10.33-1.7,2.87-4.03,5.08-6.97,6.63-2.95,1.55-6.3,2.32-10.06,2.32ZM394.17,88.41c3.2,0,5.82-1.03,7.85-3.09,2.03-2.06,3.05-4.94,3.05-8.65v-.76c0-3.71-1.02-6.59-3.05-8.65-2.03-2.06-4.65-3.09-7.85-3.09s-5.82,1.03-7.85,3.09c-2.03,2.06-3.05,4.94-3.05,8.65v.76c0,3.71,1.02,6.59,3.05,8.65,2.03,2.06,4.65,3.09,7.85,3.09Z"/>
      <path d="M417.84,95.11v-37.64h8.61v5.26h1.3c.66-1.42,1.85-2.77,3.58-4.04,1.73-1.27,4.34-1.91,7.85-1.91,2.9,0,5.46.66,7.7,1.98,2.23,1.32,3.97,3.15,5.22,5.49,1.24,2.34,1.87,5.11,1.87,8.31v22.56h-8.76v-21.87c0-3.05-.75-5.32-2.25-6.82-1.5-1.5-3.62-2.25-6.36-2.25-3.1,0-5.54,1.03-7.32,3.09-1.78,2.06-2.67,4.99-2.67,8.8v19.05h-8.76Z"/>
      <path d="M458.05,95.11l14.63-53.34h15.93l14.63,53.34h-9.45l-3.2-12.19h-19.89l-3.2,12.19h-9.45ZM472.84,74.54h15.62l-7.16-27.05h-1.3l-7.16,27.05Z"/>
      <path d="M507.33,95.11v-53.34h9.22v53.34h-9.22Z"/>
    </g>
    <g>
      <path class="cls-2" d="M250.7,131.48l5.19-18.92h5.65l5.19,18.92h-3.35l-1.14-4.32h-7.05l-1.14,4.32h-3.35ZM255.94,124.18h5.54l-2.54-9.6h-.46l-2.54,9.6Z"/>
      <path class="cls-2" d="M267.78,131.48v-18.92h3.27v18.92h-3.27Z"/>
      <path class="cls-2" d="M284.59,131.86c-1.73,0-3.15-.38-4.27-1.14-1.12-.76-1.79-1.87-2.03-3.32l2.87-.73c.13.69.35,1.23.68,1.62.32.4.72.68,1.2.84.48.16,1,.24,1.55.24.85,0,1.48-.15,1.91-.46s.64-.69.64-1.16-.2-.85-.61-1.08c-.41-.23-1.02-.43-1.85-.59l-.84-.14c-.92-.18-1.76-.43-2.51-.74-.76-.32-1.36-.75-1.82-1.3-.46-.55-.69-1.25-.69-2.09,0-1.3.48-2.3,1.45-3s2.23-1.05,3.8-1.05,2.73.33,3.7,1c.97.67,1.6,1.56,1.89,2.68l-2.87.87c-.14-.76-.46-1.29-.95-1.61s-1.08-.47-1.78-.47-1.28.13-1.66.38c-.39.25-.58.61-.58,1.08s.2.82.6,1.05c.4.23.93.41,1.59.51l.84.16c.99.18,1.89.41,2.69.7s1.44.7,1.91,1.24c.47.54.7,1.27.7,2.19,0,1.39-.5,2.46-1.5,3.2-1,.75-2.35,1.12-4.04,1.12Z"/>
      <path class="cls-2" d="M298.02,131.86c-1.33,0-2.51-.28-3.53-.85-1.02-.57-1.81-1.37-2.38-2.41-.57-1.04-.85-2.25-.85-3.64v-.32c0-1.41.28-2.62.84-3.65.56-1.03,1.34-1.82,2.35-2.39s2.17-.85,3.49-.85,2.43.28,3.41.85c.97.57,1.73,1.36,2.27,2.39s.81,2.23.81,3.59v1.11h-10.03c.04,1.05.41,1.88,1.11,2.51s1.57.95,2.6.95,1.76-.22,2.24-.66c.49-.44.86-.94,1.11-1.5l2.57,1.32c-.25.49-.62,1-1.09,1.55-.48.55-1.11,1.02-1.91,1.41-.79.39-1.79.58-3,.58ZM294.43,123.34h6.84c-.07-.88-.41-1.59-1.01-2.11-.6-.52-1.38-.78-2.34-.78s-1.78.26-2.38.78c-.59.52-.96,1.23-1.11,2.11Z"/>
      <path class="cls-2" d="M312.51,131.86c-1.3,0-2.47-.27-3.51-.81s-1.87-1.32-2.47-2.35c-.6-1.03-.91-2.26-.91-3.7v-.38c0-1.44.3-2.68.91-3.7.6-1.03,1.43-1.81,2.47-2.35s2.22-.81,3.51-.81,2.37.23,3.28.68c.91.45,1.64,1.07,2.2,1.85.56.78.92,1.66,1.08,2.64l-3,.62c-.07-.56-.24-1.07-.51-1.53-.27-.46-.65-.82-1.15-1.09-.5-.27-1.1-.41-1.82-.41s-1.4.16-1.99.47c-.59.32-1.05.79-1.38,1.42s-.5,1.39-.5,2.27v.27c0,.88.17,1.64.5,2.26.33.62.79,1.09,1.38,1.42.59.32,1.25.49,1.99.49,1.1,0,1.93-.28,2.5-.85.57-.57.92-1.3,1.07-2.2l3,.7c-.22.94-.6,1.79-1.16,2.57-.56.77-1.29,1.39-2.2,1.85-.91.46-2,.69-3.28.69Z"/>
      <path class="cls-2" d="M325.95,131.69c-1.03,0-1.94-.23-2.73-.69-.79-.46-1.41-1.11-1.84-1.95-.43-.84-.65-1.82-.65-2.93v-8h3.08v7.76c0,1.08.27,1.88.8,2.41.53.52,1.28.78,2.26.78,1.1,0,1.97-.36,2.61-1.08.64-.72.96-1.76.96-3.11v-6.76h3.08v13.35h-3.03v-1.86h-.46c-.23.49-.66.96-1.28,1.41-.62.45-1.55.68-2.8.68Z"/>
      <path class="cls-2" d="M336.11,131.48v-13.35h3.05v1.54h.46c.2-.56.53-.96,1-1.22s1.03-.38,1.68-.38h1.62v2.76h-1.68c-.9,0-1.63.24-2.19.72s-.84,1.21-.84,2.2v7.73h-3.11Z"/>
      <path class="cls-2" d="M346.87,116.42c-.56,0-1.04-.18-1.45-.55s-.61-.86-.61-1.47.2-1.1.61-1.47c.41-.37.89-.55,1.45-.55.59,0,1.09.18,1.47.55.39.37.58.86.58,1.47s-.19,1.1-.58,1.47c-.39.37-.88.55-1.47.55ZM345.33,131.48v-13.35h3.11v13.35h-3.11Z"/>
      <path class="cls-2" d="M356.11,131.48c-.87,0-1.55-.26-2.07-.77-.51-.51-.77-1.21-.77-2.09v-7.92h-3.49v-2.57h3.49v-4.3h3.11v4.3h3.84v2.57h-3.84v7.41c0,.54.25.81.76.81h2.68v2.57h-3.7Z"/>
      <path class="cls-2" d="M363.51,136.88v-2.7h7.38c.5,0,.76-.27.76-.81v-3.73h-.46c-.14.32-.38.64-.7.96-.32.32-.76.58-1.3.78s-1.23.31-2.05.31c-1.03,0-1.94-.23-2.73-.69-.79-.46-1.41-1.11-1.84-1.95-.43-.84-.65-1.82-.65-2.93v-8h3.08v7.76c0,1.08.27,1.88.8,2.41.53.52,1.28.78,2.26.78,1.1,0,1.97-.36,2.61-1.08.64-.72.96-1.76.96-3.11v-6.76h3.08v15.89c0,.88-.25,1.58-.76,2.1-.5.51-1.19.77-2.05.77h-8.38Z"/>
      <path class="cls-2" d="M386.98,131.86c-.94,0-1.78-.17-2.54-.5-.76-.33-1.36-.81-1.8-1.45-.44-.63-.66-1.41-.66-2.32s.22-1.66.66-2.27c.44-.61,1.05-1.08,1.82-1.39.77-.32,1.66-.47,2.65-.47h3.87v-.81c0-.7-.22-1.27-.65-1.72-.43-.44-1.11-.66-2.03-.66s-1.58.21-2.04.64c-.46.42-.76.97-.91,1.64l-2.87-.95c.22-.7.56-1.34,1.04-1.92s1.11-1.04,1.91-1.39c.79-.35,1.77-.53,2.92-.53,1.75,0,3.12.44,4.12,1.31,1,.87,1.5,2.14,1.5,3.8v5.24c0,.54.25.81.76.81h1.14v2.57h-2.19c-.65,0-1.18-.16-1.59-.49-.41-.32-.62-.77-.62-1.32v-.05h-.46c-.11.25-.3.56-.57.92-.27.36-.68.67-1.23.93-.55.26-1.29.39-2.23.39ZM387.49,129.32c1.03,0,1.87-.29,2.51-.88.65-.59.97-1.37.97-2.36v-.27h-3.68c-.67,0-1.21.14-1.62.43-.41.29-.62.71-.62,1.27s.22.98.65,1.31c.43.33,1.03.5,1.78.5Z"/>
      <path class="cls-2" d="M397.08,131.48v-13.35h3.05v1.86h.46c.23-.5.66-.98,1.27-1.43.61-.45,1.54-.68,2.78-.68,1.03,0,1.94.23,2.73.7.79.47,1.41,1.12,1.85,1.95.44.83.66,1.81.66,2.95v8h-3.11v-7.76c0-1.08-.27-1.89-.8-2.42-.53-.53-1.28-.8-2.26-.8-1.1,0-1.96.37-2.59,1.09s-.95,1.77-.95,3.12v6.76h-3.11Z"/>
      <path class="cls-2" d="M417.82,131.86c-1.08,0-2.09-.27-3.03-.8-.94-.53-1.69-1.31-2.24-2.34-.56-1.03-.84-2.26-.84-3.7v-.43c0-1.44.28-2.68.84-3.7.56-1.03,1.3-1.81,2.23-2.34.93-.53,1.94-.8,3.04-.8.83,0,1.53.1,2.11.3.58.2,1.04.45,1.39.76s.63.64.82,1h.46v-7.24h3.08v18.92h-3.03v-1.76h-.46c-.32.54-.82,1.03-1.49,1.47-.67.44-1.63.66-2.89.66ZM418.74,129.15c1.12,0,2.05-.37,2.78-1.09.74-.73,1.11-1.77,1.11-3.12v-.27c0-1.37-.37-2.41-1.09-3.14-.73-.72-1.66-1.08-2.8-1.08s-2.05.36-2.8,1.08c-.75.72-1.12,1.77-1.12,3.14v.27c0,1.35.37,2.39,1.12,3.12.75.73,1.68,1.09,2.8,1.09Z"/>
      <path class="cls-2" d="M440.06,131.86c-1.3,0-2.47-.27-3.51-.81s-1.87-1.32-2.47-2.35c-.6-1.03-.91-2.26-.91-3.7v-.38c0-1.44.3-2.68.91-3.7.6-1.03,1.43-1.81,2.47-2.35s2.22-.81,3.51-.81,2.37.23,3.28.68c.91.45,1.64,1.07,2.2,1.85.56.78.92,1.66,1.08,2.64l-3,.62c-.07-.56-.24-1.07-.51-1.53-.27-.46-.65-.82-1.15-1.09-.5-.27-1.1-.41-1.82-.41s-1.4.16-1.99.47c-.59.32-1.05.79-1.38,1.42s-.5,1.39-.5,2.27v.27c0,.88.17,1.64.5,2.26.33.62.79,1.09,1.38,1.42.59.32,1.25.49,1.99.49,1.1,0,1.93-.28,2.5-.85.57-.57.92-1.3,1.07-2.2l3,.7c-.22.94-.6,1.79-1.16,2.57-.56.77-1.29,1.39-2.2,1.85-.91.46-2,.69-3.28.69Z"/>
      <path class="cls-2" d="M454.71,131.86c-1.33,0-2.53-.27-3.58-.82s-1.88-1.33-2.49-2.35c-.6-1.02-.91-2.24-.91-3.66v-.43c0-1.42.3-2.65.91-3.68.6-1.03,1.43-1.81,2.49-2.35s2.25-.81,3.58-.81,2.52.27,3.57.81c1.04.54,1.87,1.32,2.47,2.35.6,1.03.91,2.25.91,3.68v.43c0,1.42-.3,2.64-.91,3.66s-1.43,1.8-2.47,2.35c-1.05.55-2.23.82-3.57.82ZM454.71,129.1c1.14,0,2.06-.37,2.78-1.09s1.08-1.75,1.08-3.07v-.27c0-1.32-.36-2.34-1.08-3.07s-1.65-1.09-2.78-1.09-2.06.37-2.78,1.09c-.72.73-1.08,1.75-1.08,3.07v.27c0,1.32.36,2.34,1.08,3.07.72.73,1.65,1.09,2.78,1.09Z"/>
      <path class="cls-2" d="M463.6,131.48v-13.35h3.05v1.86h.46c.23-.5.66-.98,1.27-1.43.61-.45,1.54-.68,2.78-.68,1.03,0,1.94.23,2.73.7.79.47,1.41,1.12,1.85,1.95.44.83.66,1.81.66,2.95v8h-3.11v-7.76c0-1.08-.27-1.89-.8-2.42-.53-.53-1.28-.8-2.26-.8-1.1,0-1.96.37-2.59,1.09s-.95,1.77-.95,3.12v6.76h-3.11Z"/>
      <path class="cls-2" d="M483.58,131.48c-.87,0-1.55-.26-2.07-.77-.51-.51-.77-1.21-.77-2.09v-7.92h-3.49v-2.57h3.49v-4.3h3.11v4.3h3.84v2.57h-3.84v7.41c0,.54.25.81.76.81h2.68v2.57h-3.7Z"/>
      <path class="cls-2" d="M489.5,131.48v-13.35h3.05v1.54h.46c.2-.56.53-.96,1-1.22s1.03-.38,1.68-.38h1.62v2.76h-1.68c-.9,0-1.63.24-2.19.72s-.84,1.21-.84,2.2v7.73h-3.11Z"/>
      <path class="cls-2" d="M504.55,131.86c-1.33,0-2.53-.27-3.58-.82s-1.88-1.33-2.49-2.35-.91-2.24-.91-3.66v-.43c0-1.42.3-2.65.91-3.68.6-1.03,1.43-1.81,2.49-2.35s2.25-.81,3.58-.81,2.52.27,3.57.81c1.04.54,1.87,1.32,2.47,2.35.6,1.03.91,2.25.91,3.68v.43c0,1.42-.3,2.64-.91,3.66s-1.43,1.8-2.47,2.35c-1.05.55-2.23.82-3.57.82ZM504.55,129.1c1.14,0,2.06-.37,2.78-1.09s1.08-1.75,1.08-3.07v-.27c0-1.32-.36-2.34-1.08-3.07s-1.65-1.09-2.78-1.09-2.06.37-2.78,1.09c-.72.73-1.08,1.75-1.08,3.07v.27c0,1.32.36,2.34,1.08,3.07.72.73,1.65,1.09,2.78,1.09Z"/>
      <path class="cls-2" d="M513.44,131.48v-18.92h3.11v18.92h-3.11Z"/>
    </g>
    <path d="M0,48.76C0,31.7,0,23.16,3.32,16.64c2.92-5.73,7.58-10.4,13.32-13.32C23.16,0,31.7,0,48.76,0h39.35C105.19,0,113.72,0,120.24,3.32c5.73,2.92,10.4,7.58,13.32,13.32,3.32,6.52,3.32,15.05,3.32,32.12v39.35c0,17.07,0,25.6-3.32,32.12-2.92,5.73-7.58,10.4-13.32,13.32-6.52,3.32-15.05,3.32-32.12,3.32h-39.35c-17.07,0-25.6,0-32.12-3.32-5.73-2.92-10.4-7.58-13.32-13.32-3.32-6.52-3.32-15.05-3.32-32.12v-39.35Z"/>
    <path class="cls-1" d="M67.02,108.29c-5.4,0-10.23-1.19-14.5-3.56-4.27-2.37-7.66-5.84-10.18-10.4-2.52-4.56-3.78-10.16-3.78-16.8v-18.17c0-9.92,2.77-17.53,8.32-22.82,5.54-5.29,12.99-7.94,22.33-7.94s16.53,2.5,21.56,7.5c5.04,5,7.55,11.73,7.55,20.2v.44h-12.92v-.88c0-2.92-.58-5.54-1.75-7.88-1.17-2.33-2.96-4.18-5.36-5.53-2.41-1.35-5.44-2.03-9.09-2.03-5.4,0-9.65,1.66-12.75,4.98-3.1,3.32-4.65,7.9-4.65,13.74v18.61c0,5.77,1.55,10.36,4.65,13.79,3.1,3.43,7.42,5.15,12.97,5.15s9.59-1.5,12.15-4.49c2.55-2.99,3.83-6.82,3.83-11.49v-1.31h-19.37v-11.17h32.29v38.53h-12.04v-7.55h-1.86c-.59,1.31-1.5,2.68-2.74,4.1-1.24,1.42-3.01,2.61-5.31,3.56-2.3.95-5.42,1.42-9.36,1.42Z"/>
  </g>
</svg>